<svg width="69" height="37" viewBox="0 0 69 37" fill="none" xmlns="http://www.w3.org/2000/svg">
<path fill-rule="evenodd" clip-rule="evenodd" d="M38.2595 2.97397C37.3194 2.503 36.1561 2.3642 34.8561 2.60008C34.0546 2.74611 33.2 3.03494 32.3138 3.47541C31.463 3.89984 30.6484 4.43178 29.8766 5.04876L33.0075 6.6181C33.7793 6.00111 34.5939 5.46918 35.4438 5.04555C36.33 4.60428 37.1836 4.31544 37.9861 4.16942C39.2861 3.93354 40.4494 4.07234 41.3895 4.5433L38.2595 2.97397Z" fill="#F0A72E"/>
<mask id="mask0" mask-type="alpha" maskUnits="userSpaceOnUse" x="0" y="0" width="31" height="35">
<path fill-rule="evenodd" clip-rule="evenodd" d="M0 0.528465H30.3026V34.0692H0V0.528465Z" fill="white"/>
</mask>
<g mask="url(#mask0)">
<path fill-rule="evenodd" clip-rule="evenodd" d="M27.1726 1.09069C26.0865 0.545919 24.7409 0.386258 23.2382 0.659046C22.3102 0.827533 21.3217 1.1613 20.2961 1.67238C18.5898 2.52283 16.9876 3.75841 15.5983 5.21943C13.0421 7.908 11.2065 11.3596 10.762 14.5729C9.99487 14.7221 9.17285 15.0053 8.32945 15.4257C6.85838 16.1582 5.47751 17.2221 4.28075 18.4802C1.71614 21.1735 -0.00971918 24.7551 -0.000420372 27.8729C0.00794856 30.1467 0.9369 31.7473 2.4368 32.4991L5.56678 34.0692C4.06595 33.3167 3.137 31.716 3.12956 29.4422C3.11933 26.3244 4.84612 22.7429 7.4098 20.0495C8.60749 18.7915 9.98743 17.7276 11.4594 16.9951C12.3019 16.5747 13.1248 16.2914 13.8911 16.1422C14.3356 12.9289 16.1721 9.47734 18.7283 6.78876C20.1176 5.32774 21.7188 4.09217 23.4261 3.24171C24.4508 2.73063 25.4393 2.39687 26.3673 2.22838C27.8709 1.95479 29.2155 2.11526 30.3025 2.66003L27.1726 1.09069Z" fill="#F0A72E"/>
</g>
<path fill-rule="evenodd" clip-rule="evenodd" d="M23.4258 3.24034C28.2668 0.828564 32.2895 2.35778 33.0073 6.6181C33.7791 6.00112 34.5937 5.46918 35.4436 5.04555C40.0577 2.74691 43.8125 4.59305 43.8274 9.16707C43.8423 13.7419 40.1116 19.3164 35.4975 21.615L11.5131 33.5632C6.89254 35.865 3.14419 34.0157 3.12932 29.4409C3.11444 24.866 6.83768 19.2955 11.4583 16.9937C12.3026 16.5733 13.1246 16.2901 13.8908 16.1408C14.5771 11.1809 18.5774 5.65532 23.4258 3.24034Z" fill="#FFCA00"/>
<path fill-rule="evenodd" clip-rule="evenodd" d="M62.7052 5.2203C61.7651 4.74934 60.6018 4.61054 59.3019 4.84642C58.4994 4.99244 57.6457 5.28128 56.7586 5.72175C55.9087 6.14537 55.0942 6.67811 54.3224 7.2951L57.4523 8.86443C58.2241 8.24745 59.0387 7.71471 59.8896 7.29189C60.7748 6.84981 61.6294 6.56178 62.4309 6.41576C63.7318 6.17987 64.8942 6.31867 65.8343 6.78964L62.7052 5.2203Z" fill="#D43E3E"/>
<path fill-rule="evenodd" clip-rule="evenodd" d="M51.6138 3.33044C50.5277 2.78566 49.1821 2.6252 47.6795 2.89799C46.7514 3.06647 45.7648 3.40024 44.741 3.91051C43.0403 4.75776 41.4427 5.99013 40.0563 7.44874C37.4982 10.1397 35.6589 13.5977 35.2135 16.8142C34.4398 16.9667 33.6243 17.2467 32.7744 17.6703C31.3052 18.402 29.9262 19.4659 28.7294 20.7231C26.1648 23.4165 24.4352 26.9997 24.4454 30.1175C24.4529 32.3904 25.3837 33.9895 26.8827 34.742L30.0126 36.3106C28.5127 35.5588 27.5819 33.9598 27.5745 31.6868C27.5643 28.569 29.2948 24.9858 31.8585 22.2924C33.0561 21.0344 34.4352 19.9713 35.9034 19.2396C36.7552 18.816 37.5698 18.536 38.3434 18.3836C38.7889 15.1663 40.6282 11.7091 43.1863 9.01808C44.5727 7.55946 46.1703 6.3271 47.871 5.47905C48.8939 4.96958 49.8814 4.63581 50.8085 4.46732C52.3121 4.19453 53.6567 4.355 54.7438 4.89977L51.6138 3.33044Z" fill="#D43E3E"/>
<path fill-rule="evenodd" clip-rule="evenodd" d="M47.8706 5.47921C52.7116 3.06824 56.7352 4.60388 57.4521 8.86419C58.2239 8.24721 59.0385 7.71527 59.8893 7.29165C64.5034 4.993 68.2573 6.83914 68.2722 11.4132C68.2871 15.988 64.5573 21.5625 59.9433 23.8611L35.9579 35.8093C31.3448 38.1079 27.5899 36.2618 27.5751 31.687C27.5602 27.1121 31.2899 21.5376 35.904 19.239C36.7548 18.8162 37.5703 18.5362 38.3431 18.3829C39.0293 13.4238 43.0297 7.89098 47.8706 5.47921Z" fill="#FA7564"/>
</svg>
